<svg viewBox="0 0 200 200" xmlns="http://www.w3.org/2000/svg">
  <path fill="#FF0066" d="M30.7,-49.5C40.2,-47.6,48.6,-40.3,60,-31.1C71.3,-22,85.6,-11,83.9,-1C82.3,9.1,64.7,18.1,53.4,27.4C42.1,36.7,37.1,46.1,29.3,49.4C21.4,52.7,10.7,49.8,-2.3,53.7C-15.2,57.7,-30.5,68.4,-37.9,64.9C-45.4,61.4,-45.1,43.6,-46.4,30.5C-47.6,17.3,-50.3,8.6,-49.4,0.6C-48.4,-7.5,-43.7,-15,-41.3,-26.2C-38.9,-37.4,-38.8,-52.2,-32.3,-55.8C-25.8,-59.4,-12.9,-51.7,-1.2,-49.7C10.6,-47.7,21.1,-51.3,30.7,-49.5Z" transform="translate(100 100)" />
</svg>