  <svg viewBox="0 0 200 200" xmlns="http://www.w3.org/2000/svg">
      <path
        id="mask"
        fill="#FF0066"
        d="M30.2,-52C42.2,-45.4,57,-43.4,55.3,-35.6C53.5,-27.7,35.1,-13.8,25.7,-5.5C16.2,2.9,15.7,5.8,16.5,12.1C17.4,18.4,19.6,28.1,17.1,37.6C14.6,47.2,7.3,56.6,1.6,53.7C-4,50.8,-8,35.8,-17.5,30.3C-27,24.8,-42,28.9,-54.1,25.4C-66.1,22,-75.1,11,-73.4,1C-71.7,-9,-59.2,-18,-49,-24.6C-38.8,-31.2,-30.8,-35.4,-23.1,-44.4C-15.3,-53.5,-7.6,-67.3,0.7,-68.6C9.1,-69.9,18.2,-58.6,30.2,-52Z"
        transform="translate(100 100)"
      />
    </svg>